<svg xmlns="http://www.w3.org/2000/svg" width="690.27338" height="446.54651" x="0px" y="0px" viewBox="0 0 690.27338 446.54651"><path d="M576.406 607.82s10.229-8.358 30.188-1.539c0 0 15.842-6.985 29.854 1.705v43.66s-.54 4.782-5.655 1.538c0 0-12.432-6.819-20.624 1.04 0 0-5.82 3.41-8.357-.666 0 0-7.36-6.32-19.626-.374 0 0-5.614 2.246-5.78-2.203z" style="fill:#fff;fill-rule:evenodd;stroke:#fff;stroke-width:8.5039;stroke-linecap:round;stroke-linejoin:round;stroke-dasharray:none" transform="matrix(5.83402 0 0 5.83402 -3337.956 -3402.845)"/><path d="M579.441 608.693v37.506s17.589-6.986 25.947 1.87v-39.21s-10.562-5.488-25.947-.166M633.538 608.693v37.506s-17.589-6.986-25.946 1.87v-39.21s10.603-5.488 25.946-.166" style="fill:#fff;fill-rule:evenodd;stroke:#fff;stroke-width:8.5039;stroke-linecap:round;stroke-linejoin:round;stroke-dasharray:none" transform="matrix(5.83402 0 0 5.83402 -3337.956 -3402.845)"/><path d="M579.275 651.854s12.807-9.564 24.74-.208c0 0 1.705 2.079 5.115 0 0 0 9.397-9.19 24.242.54M686.22 640.419a3.25 3.25 0 0 1-3.243 3.243H586.47a3.247 3.247 0 0 1-3.244-3.243v-49.647a3.247 3.247 0 0 1 3.243-3.244h96.51a3.25 3.25 0 0 1 3.243 3.244z" style="fill:#fff;fill-rule:evenodd;stroke:#fff;stroke-width:8.5039;stroke-linecap:round;stroke-linejoin:round;stroke-dasharray:none" transform="matrix(5.83402 0 0 5.83402 -3337.956 -3402.845)"/><path d="M632.457 594.514h-7.942v-2.204c0-1.663-1.455-3.035-3.285-3.035s-3.285 1.372-3.285 3.035v2.204h-15.551v-2.37c0-1.663-1.497-3.036-3.285-3.036-1.83 0-3.326 1.373-3.326 3.036v2.37h-7.11c-1.706 0-3.078 1.372-3.078 3.035 0 1.705 1.372 3.036 3.077 3.036h7.11v2.37c0 1.705 1.497 3.035 3.327 3.035 1.788 0 3.285-1.33 3.285-3.035v-2.37h15.551v2.536c0 1.705 1.455 3.077 3.285 3.077s3.285-1.372 3.285-3.077v-2.536h7.942a3.026 3.026 0 0 0 3.035-3.036 3.05 3.05 0 0 0-3.035-3.035" style="fill:#fff;fill-rule:evenodd;stroke:#fff;stroke-width:8.5039;stroke-linecap:round;stroke-linejoin:round;stroke-dasharray:none" transform="matrix(5.83402 0 0 5.83402 -3337.956 -3402.845)"/><path d="M633.039 607.695h-19.21v-4.574c0-1.206-1.456-2.204-3.285-2.204s-3.285.998-3.285 2.204v4.574h-19.21c-1.705 0-3.119 1.372-3.119 3.035 0 1.705 1.414 3.036 3.119 3.036h11.393c-.25 4.158-1.955 14.844-13.514 20.665 0 0-3.202 5.572 3.867 5.406 0 0 10.81-3.826 15.26-17.256H623.6v8.44c.707 3.91-2.495 4.076-2.495 4.076-2.91.831-12.183-.666-12.183-.666-6.112 1.996 0 6.071 0 6.071 7.11 2.37 14.678.5 14.678.5 6.445-.5 7.11-7.111 7.11-7.111l.167-13.181c.873-4.034-3.701-4.574-3.701-4.574h-20.624q.124-1.124.25-2.37h26.237c1.746 0 3.118-1.33 3.118-3.036 0-1.663-1.372-3.035-3.118-3.035M683.31 636.469v-36.8c0-1.745-1.538-3.118-3.41-3.118-1.83 0-3.368 1.372-3.368 3.119v35.094h-12.016000000000002v-39.793c0-1.954-1.622-3.492-3.618-3.492s-3.617 1.538-3.617 3.492v39.793h-12.183v-35.427c0-1.746-1.54-3.118-3.369-3.118-1.87 0-3.41 1.372-3.41 3.118v37.672c.042 1.996 1.498 3.618 3.41 3.867.208.042.374.042.582.042.167 0 .375 0 .54-.042l35.968-.041c.167.041.374.041.54.041s.333 0 .5-.041c1.788-.208 3.243-1.663 3.451-3.493v-.873" style="fill:#fff;fill-rule:evenodd;stroke:#fff;stroke-width:8.5039;stroke-linecap:round;stroke-linejoin:round;stroke-dasharray:none" transform="matrix(5.83402 0 0 5.83402 -3337.956 -3402.845)"/><path d="M576.406 607.82s10.229-8.358 30.188-1.539c0 0 15.842-6.985 29.854 1.705v43.66s-.54 4.782-5.655 1.538c0 0-12.432-6.819-20.624 1.04 0 0-5.82 3.41-8.357-.666 0 0-7.36-6.32-19.626-.374 0 0-5.614 2.246-5.78-2.203z" style="fill:#005026;fill-rule:evenodd" transform="matrix(5.83402 0 0 5.83402 -3337.956 -3402.845)"/><path d="M579.441 608.693v37.506s17.589-6.986 25.947 1.87v-39.21s-10.562-5.488-25.947-.166zM633.538 608.693v37.506s-17.589-6.986-25.946 1.87v-39.21s10.603-5.488 25.946-.166z" style="fill:none;stroke:#fff;stroke-width:1.1549;stroke-linecap:butt;stroke-linejoin:miter;stroke-dasharray:none" transform="matrix(5.83402 0 0 5.83402 -3337.956 -3402.845)"/><path d="M579.275 651.854s12.807-9.564 24.74-.208c0 0 1.705 2.079 5.115 0 0 0 9.397-9.19 24.242.54" style="fill:none;stroke:#fff;stroke-width:1.1549;stroke-linecap:butt;stroke-linejoin:miter;stroke-dasharray:none" transform="matrix(5.83402 0 0 5.83402 -3337.956 -3402.845)"/><path d="M686.22 640.419a3.25 3.25 0 0 1-3.243 3.243H586.47a3.247 3.247 0 0 1-3.244-3.243v-49.647a3.247 3.247 0 0 1 3.243-3.244h96.51a3.25 3.25 0 0 1 3.243 3.244z" style="fill:#005026;fill-rule:evenodd" transform="matrix(5.83402 0 0 5.83402 -3337.956 -3402.845)"/><path d="M632.457 594.514h-7.942v-2.204c0-1.663-1.455-3.035-3.285-3.035s-3.285 1.372-3.285 3.035v2.204h-15.551v-2.37c0-1.663-1.497-3.036-3.285-3.036-1.83 0-3.326 1.373-3.326 3.036v2.37h-7.11c-1.706 0-3.078 1.372-3.078 3.035 0 1.705 1.372 3.036 3.077 3.036h7.11v2.37c0 1.705 1.497 3.035 3.327 3.035 1.788 0 3.285-1.33 3.285-3.035v-2.37h15.551v2.536c0 1.705 1.455 3.077 3.285 3.077s3.285-1.372 3.285-3.077v-2.536h7.942a3.026 3.026 0 0 0 3.035-3.036 3.05 3.05 0 0 0-3.035-3.035" style="fill:#cfa01e;fill-rule:evenodd" transform="matrix(5.83402 0 0 5.83402 -3337.956 -3402.845)"/><path d="M633.039 607.695h-19.21v-4.574c0-1.206-1.456-2.204-3.285-2.204s-3.285.998-3.285 2.204v4.574h-19.21c-1.705 0-3.119 1.372-3.119 3.035 0 1.705 1.414 3.036 3.119 3.036h11.393c-.25 4.158-1.955 14.844-13.514 20.665 0 0-3.202 5.572 3.867 5.406 0 0 10.81-3.826 15.26-17.256H623.6v8.44c.707 3.91-2.495 4.076-2.495 4.076-2.91.831-12.183-.666-12.183-.666-6.112 1.996 0 6.071 0 6.071 7.11 2.37 14.678.5 14.678.5 6.445-.5 7.11-7.111 7.11-7.111l.167-13.181c.873-4.034-3.701-4.574-3.701-4.574h-20.624q.124-1.124.25-2.37h26.237c1.746 0 3.118-1.33 3.118-3.036 0-1.663-1.372-3.035-3.118-3.035M683.31 636.469v-36.8c0-1.745-1.538-3.118-3.41-3.118-1.83 0-3.368 1.372-3.368 3.119v35.094h-12.016000000000002v-39.793c0-1.954-1.622-3.492-3.618-3.492s-3.617 1.538-3.617 3.492v39.793h-12.183v-35.427c0-1.746-1.54-3.118-3.369-3.118-1.87 0-3.41 1.372-3.41 3.118v37.672c.042 1.996 1.498 3.618 3.41 3.867.208.042.374.042.582.042.167 0 .375 0 .54-.042l35.968-.041c.167.041.374.041.54.041s.333 0 .5-.041c1.788-.208 3.243-1.663 3.451-3.493v-.873" style="fill:#cfa01e;fill-rule:evenodd" transform="matrix(5.83402 0 0 5.83402 -3337.956 -3402.845)"/></svg>